<?xml version="1.0" standalone="no"?>
<!DOCTYPE svg PUBLIC "-//W3C//DTD SVG 20010904//EN"
 "http://www.w3.org/TR/2001/REC-SVG-20010904/DTD/svg10.dtd">
<svg version="1.0" xmlns="http://www.w3.org/2000/svg"
 width="500.000000pt" height="500.000000pt" viewBox="0 0 500.000000 500.000000"
 preserveAspectRatio="xMidYMid meet">
<metadata>
Created by potrace 1.14, written by Peter Selinger 2001-2017
</metadata>
<g transform="translate(0.000000,500.000000) scale(0.100000,-0.100000)"
fill="#000000" stroke="none">
<path d="M2369 4642 c-30 -32 -92 -100 -139 -152 -109 -120 -130 -142 -199
-216 -31 -33 -94 -102 -141 -153 -47 -51 -98 -107 -115 -125 -29 -31 -184
-201 -234 -255 -13 -14 -68 -73 -122 -131 -53 -58 -106 -115 -116 -126 -10
-12 -58 -65 -108 -119 -49 -53 -101 -109 -114 -124 -57 -62 -208 -226 -231
-251 -14 -15 -52 -56 -85 -91 -193 -209 -245 -266 -262 -285 -17 -20 -174
-190 -240 -262 -18 -19 -33 -35 -33 -36 0 -1 650 -1 1445 -1 795 0 1445 -1
1445 -1 0 -1 -453 -454 -1006 -1008 -554 -553 -1004 -1006 -1000 -1006 8 0
171 108 464 309 90 61 168 111 172 111 5 0 10 4 12 8 2 4 44 35 93 68 183 123
220 149 223 157 2 4 7 7 12 7 4 0 129 82 277 183 272 186 535 364 788 535 77
52 181 123 230 157 50 34 187 127 305 207 326 221 613 416 632 430 10 7 114
78 232 158 l215 145 -1725 3 c-948 1 -1724 5 -1724 8 0 3 53 96 119 207 65
111 127 218 137 237 25 46 131 226 159 270 13 19 40 66 61 103 22 38 46 81 55
95 9 15 25 43 36 62 11 19 138 237 282 484 144 246 260 450 258 452 -2 2 -28
-22 -58 -54z"/>
</g>
</svg>
